<?xml version="1.0" encoding="UTF-8" standalone="no"?>
<svg
   width="264.6604"
   height="250.41167"
   fill="currentColor"
   class="bi bi-image"
   viewBox="0 0 264.6604 250.41167"
   version="1.1"
   id="svg6"
   sodipodi:docname="image_dummy.svg"
   inkscape:version="1.1.1 (3bf5ae0d25, 2021-09-20)"
   xmlns:inkscape="http://www.inkscape.org/namespaces/inkscape"
   xmlns:sodipodi="http://sodipodi.sourceforge.net/DTD/sodipodi-0.dtd"
   xmlns="http://www.w3.org/2000/svg"
   xmlns:svg="http://www.w3.org/2000/svg">
  <defs
     id="defs10" />
  <sodipodi:namedview
     id="namedview8"
     pagecolor="#ffffff"
     bordercolor="#999999"
     borderopacity="1"
     inkscape:pageshadow="0"
     inkscape:pageopacity="0"
     inkscape:pagecheckerboard="0"
     showgrid="false"
     showguides="false"
     fit-margin-top="0"
     fit-margin-left="0"
     fit-margin-right="0"
     fit-margin-bottom="0"
     inkscape:zoom="1.1214272"
     inkscape:cx="316.56091"
     inkscape:cy="284.90482"
     inkscape:window-width="1920"
     inkscape:window-height="1001"
     inkscape:window-x="-9"
     inkscape:window-y="-9"
     inkscape:window-maximized="1"
     inkscape:current-layer="svg6"
     showborder="false" />
  <path
     d="m 74.070855,54.961813 a 18.517715,18.320606 0 1 1 -37.035425,0 18.517715,18.320606 0 0 1 37.035425,0 z"
     id="path2"
     style="stroke-width:12.2793" />
  <path
     d="M 33.082551,0 A 33.082551,35.773097 0 0 0 0,35.7731 v 178.86548 a 33.082551,35.773097 0 0 0 33.082551,35.77309 H 231.57785 a 33.082551,35.773097 0 0 0 33.08256,-35.77309 V 35.7731 A 33.082551,35.773097 0 0 0 231.57785,0 Z M 231.57785,17.886546 A 16.541275,17.886548 0 0 1 248.11912,35.7731 v 116.26256 l -62.47638,-34.82511 a 8.2706379,8.9432745 0 0 0 -9.54432,1.66345 l -61.36814,66.35909 -43.999792,-31.69496 a 8.2706379,8.9432745 0 0 0 -10.421002,1.10901 L 16.541273,196.75203 V 35.7731 A 16.541275,17.886548 0 0 1 33.082551,17.886546 Z"
     id="path4"
     style="stroke-width:17.2008" />
</svg>
